<svg width="27" height="22" viewBox="0 0 27 22" fill="none" xmlns="http://www.w3.org/2000/svg" style="width:54.72px;height:43.199999999999996px"><path d="M26.0699 10.7727H0.744854C0.333482 10.7727 0 11.1053 0 11.5156C0 11.926 0.333482 12.2586 0.744854 12.2586H26.0699C26.4813 12.2586 26.8147 11.926 26.8147 11.5156C26.8147 11.1053 26.4813 10.7727 26.0699 10.7727Z" fill="#E77629"></path><path d="M23.463 16.7163H3.72435C3.31297 16.7163 2.97949 17.0489 2.97949 17.4592C2.97949 17.8696 3.31297 18.2022 3.72435 18.2022H23.463C23.8743 18.2022 24.2078 17.8696 24.2078 17.4592C24.2078 17.0489 23.8743 16.7163 23.463 16.7163Z" fill="#E77629"></path><path d="M7.44809 13.7449H2.23411C1.82274 13.7449 1.48926 14.0775 1.48926 14.4878C1.48926 14.8981 1.82274 15.2308 2.23411 15.2308H7.44809C7.85946 15.2308 8.19294 14.8981 8.19294 14.4878C8.19294 14.0775 7.85946 13.7449 7.44809 13.7449Z" fill="#E77629"></path><path d="M25.3245 13.7449H10.4275C10.0161 13.7449 9.68262 14.0775 9.68262 14.4878C9.68262 14.8981 10.0161 15.2308 10.4275 15.2308H25.3245C25.7359 15.2308 26.0694 14.8981 26.0694 14.4878C26.0694 14.0775 25.7359 13.7449 25.3245 13.7449Z" fill="#E77629"></path><path d="M17.8765 19.6877H8.93821C8.52684 19.6877 8.19336 20.0204 8.19336 20.4307C8.19336 20.841 8.52684 21.1736 8.93821 21.1736H17.8765C18.2878 21.1736 18.6213 20.841 18.6213 20.4307C18.6213 20.0204 18.2878 19.6877 17.8765 19.6877Z" fill="#E77629"></path><path d="M5.5871 13.0017C5.5871 12.8047 5.66558 12.6157 5.80526 12.4764C5.94495 12.3371 6.13441 12.2588 6.33195 12.2588H3.35254C3.55009 12.2588 3.73954 12.3371 3.87923 12.4764C4.01892 12.6157 4.09739 12.8047 4.09739 13.0017C4.09739 13.1988 4.01892 13.3877 3.87923 13.5271C3.73954 13.6664 3.55009 13.7447 3.35254 13.7447H6.33195C6.13441 13.7447 5.94495 13.6664 5.80526 13.5271C5.66558 13.3877 5.5871 13.1988 5.5871 13.0017Z" fill="#E77629"></path><path d="M20.4836 15.9732C20.4836 15.7761 20.5621 15.5872 20.7017 15.4478C20.8414 15.3085 21.0309 15.2302 21.2284 15.2302H18.249C18.4466 15.2302 18.636 15.3085 18.7757 15.4478C18.9154 15.5872 18.9939 15.7761 18.9939 15.9732C18.9939 16.1702 18.9154 16.3592 18.7757 16.4985C18.636 16.6378 18.4466 16.7161 18.249 16.7161H21.2284C21.0309 16.7161 20.8414 16.6378 20.7017 16.4985C20.5621 16.3592 20.4836 16.1702 20.4836 15.9732Z" fill="#E77629"></path><path d="M14.1525 18.9453C14.1525 18.7483 14.231 18.5593 14.3707 18.42C14.5104 18.2807 14.6998 18.2024 14.8974 18.2024H11.918C12.1155 18.2024 12.305 18.2807 12.4447 18.42C12.5843 18.5593 12.6628 18.7483 12.6628 18.9453C12.6628 19.1424 12.5843 19.3313 12.4447 19.4707C12.305 19.61 12.1155 19.6883 11.918 19.6883H14.8974C14.6998 19.6883 14.5104 19.61 14.3707 19.4707C14.231 19.3313 14.1525 19.1424 14.1525 18.9453Z" fill="#E77629"></path><path d="M22.718 9.28674C22.718 6.82374 21.7371 4.46162 19.991 2.72002C18.2449 0.978422 15.8767 0 13.4073 0C10.938 0 8.5698 0.978422 6.82371 2.72002C5.07762 4.46162 4.09668 6.82374 4.09668 9.28674H22.718Z" fill="#E77629"></path></svg>